<?xml version="1.0" encoding="utf-8"?>
<!-- Generator: Adobe Illustrator 17.0.0, SVG Export Plug-In . SVG Version: 6.00 Build 0)  -->
<!DOCTYPE svg PUBLIC "-//W3C//DTD SVG 1.1//EN" "http://www.w3.org/Graphics/SVG/1.1/DTD/svg11.dtd">
<svg version="1.1" id="图层_1" xmlns="http://www.w3.org/2000/svg" xmlns:xlink="http://www.w3.org/1999/xlink" x="0px" y="0px"
	 width="118px" height="118px" viewBox="0 0 118 118" enable-background="new 0 0 118 118" xml:space="preserve">
<g>
	<path fill="#DDDDDD" d="M58.105,92.25H13.98c-2.608,0-4.73-2.068-4.73-4.611V61.933c6.173-5.612,14.094-8.683,22.5-8.683
		c11.767,0,22.128,6.103,28.106,15.305c1.36-2.956,3.131-5.681,5.241-8.106C57.307,50.593,45.259,44.25,31.75,44.25
		c-8.088,0-15.818,2.25-22.5,6.438V23.861c0-2.542,2.122-4.611,4.73-4.611H91.52c2.608,0,4.73,2.069,4.73,4.611v25.338
		c3.169,0.516,6.19,1.467,9,2.795V23.861c0-7.505-6.159-13.611-13.73-13.611H13.98c-7.571,0-13.73,6.106-13.73,13.611v36.17
		c0,0.001,0,0.002,0,0.003v27.605c0,7.505,6.159,13.611,13.73,13.611H62.23C60.441,98.499,59.042,95.474,58.105,92.25z"/>
	<g>
		<path fill="#DDDDDD" d="M90.75,63.75c10.477,0,19,8.523,19,19s-8.523,19-19,19s-19-8.523-19-19S80.273,63.75,90.75,63.75
			 M90.75,55.75c-14.912,0-27,12.088-27,27s12.088,27,27,27s27-12.088,27-27S105.662,55.75,90.75,55.75L90.75,55.75z"/>
	</g>
	<path fill="#DDDDDD" d="M90.833,89.75c0.971,0,1.783,0.33,2.437,0.988c0.652,0.659,0.98,1.496,0.98,2.513
		c0,1.015-0.346,1.853-1.037,2.512c-0.691,0.659-1.54,0.988-2.547,0.988c-1.008,0-1.83-0.347-2.464-1.044
		c-0.635-0.696-0.952-1.542-0.952-2.54c0-0.997,0.345-1.816,1.036-2.455C88.976,90.071,89.826,89.75,90.833,89.75z"/>
	<path fill="#DDDDDD" d="M93.253,72.75c0.053-0.609-0.172-1.172-0.675-1.689c-0.504-0.517-1.107-0.774-1.808-0.774
		s-1.311,0.272-1.828,0.814c-0.516,0.543-0.749,1.093-0.695,1.649l0.344,12.968h0.003c0,0.011-0.003,0.021-0.003,0.032
		c0,1.105,0.895,2,2,2s2-0.895,2-2c0-0.011-0.003-0.021-0.003-0.032h0.003L93.253,72.75z"/>
	<circle fill="#DDDDDD" cx="78.75" cy="36.75" r="8"/>
</g>
</svg>
